<?xml version="1.0" encoding="utf-8"?>
<!-- Generator: Adobe Illustrator 24.0.0, SVG Export Plug-In . SVG Version: 6.00 Build 0)  -->
<svg version="1.1" id="Layer_1" xmlns="http://www.w3.org/2000/svg" xmlns:xlink="http://www.w3.org/1999/xlink" x="0px" y="0px"
	 viewBox="0 0 150 150" style="enable-background:new 0 0 150 150;" xml:space="preserve">
<style type="text/css">
	.st0{fill:#FFFFFF;}
	.st1{fill:#2A3238;}
	.st2{fill:#4DA925;}
</style>
<g>
	<g>
		<path class="st0" d="M130.8,30.6L83.5,2.5c-5.6-3.3-12.6-3.3-18.3,0L17.9,30.6c-5.6,3.3-9.2,9.5-9.2,16.3v56.2
			c0,6.7,3.4,12.8,9.2,16.3l47.3,28.1c2.8,1.7,6,2.5,9.2,2.5s6.4-0.9,9.2-2.5l47.3-28.1c5.6-3.3,9.2-9.5,9.2-16.3V46.8
			C139.9,40.2,136.5,33.9,130.8,30.6z"/>
	</g>
	<g>
		<g>
			<path class="st1" d="M130.8,30.6L83.5,2.5c-2.8-1.7-6-2.5-9.2-2.5S68,0.9,65.2,2.5L17.9,30.6c-5.6,3.3-9.2,9.5-9.2,16.3v56.2
				c0,6.7,3.4,12.8,9.2,16.3l47.3,28.1c2.8,1.7,6,2.5,9.2,2.5s6.4-0.9,9.2-2.5l47.3-28.1c5.6-3.3,9.2-9.5,9.2-16.3V46.8
				C139.9,40.2,136.5,33.9,130.8,30.6z M66.8,144.4l-47.3-28.1C15,113.5,12,108.4,12,103V46.8c0-5.5,2.9-10.7,7.5-13.3L66.8,5.3
				c2.3-1.4,4.8-2,7.5-2s5.2,0.8,7.5,2l47.3,28.1c3.9,2.3,6.5,6.4,7.2,10.8c-1.5-3.3-5.1-4.3-9.3-1.9L82.5,70
				c-5.6,3.3-9.7,6.9-9.7,13.6v55.2c0,4.1,1.7,6.6,4.1,7.4c-0.8,0.1-1.7,0.3-2.5,0.3C71.8,146.6,69.1,145.8,66.8,144.4z"/>
		</g>
	</g>
	<g>
		<path class="st2" d="M118.4,108.4l-11.8,7c-0.3,0.1-0.5,0.4-0.5,0.8v3.1c0,0.4,0.3,0.5,0.5,0.4l11.9-7.2c0.3-0.1,0.4-0.5,0.4-0.9
			v-2.7C118.9,108.4,118.7,108.3,118.4,108.4z"/>
	</g>
	<g>
		<path class="st0" d="M93.3,82.5c0.4-0.3,0.6,0,0.8,0.5v4.1c1.7-0.6,3.2-0.9,4.6-0.5c0.3,0.1,0.4,0.5,0.3,0.9L98,91
			c-0.1,0.3-0.3,0.5-0.4,0.8c-0.1,0.1-0.1,0.1-0.3,0.1c-0.1,0-0.3,0.1-0.4,0c-0.6-0.1-2-0.5-4.3,0.8c-2.4,1.3-3.3,3.3-3.2,4.8
			c0,1.9,1,2.4,4.2,2.4c4.3,0.1,6.2,2,6.4,6.4c0,4.3-2.3,9-5.8,11.8l0.1,4.1c0,0.5-0.3,1-0.6,1.3l-2.4,1.4c-0.4,0.3-0.6,0-0.8-0.5
			v-3.9c-2,0.9-4.1,1-5.5,0.5c-0.3-0.1-0.4-0.5-0.3-0.9l0.9-3.7c0.1-0.3,0.3-0.6,0.4-0.8c0.1-0.1,0.1-0.1,0.3-0.1
			c0.1-0.1,0.3-0.1,0.4,0c1.4,0.5,3.3,0.3,5-0.6c2.3-1.1,3.7-3.4,3.7-5.7c0-2-1.1-2.9-3.8-2.9c-3.4,0-6.6-0.6-6.7-5.7
			c0-4.2,2.2-8.5,5.6-11.2v-4.1c0-0.5,0.3-1,0.6-1.3L93.3,82.5z"/>
	</g>
</g>
</svg>
